@startuml
title 基于GitHub的实验管理平台--类图
class users {
    <b>user_id</b> （用户ID）
    name （用户真实姓名）
    github_username （用户GitHub账号）
    update_date （用户GitHub账号修改日期）
    password （用户密码）
    disable （用户是否禁用）
}
class teachers{
    <b>teacher_id</b> （老师工号）
    department （老师所属部门）
    teacher_term（老师教授的学期）
    teacher_course（老师教授的课程）
}
class students{
    <b>student_id</b> （学号）
    class （班级）
    result_sum（成绩汇总）
    web_sum （网站正确与否汇总）
    student_term（学生的学期）
    student_course（学生的课程）

}
users <|- students
users <|-- teachers
class Teachersxuanke{
    <b>select_id</b>（选课ID）
    <b>discipline_id</b>（课程编号）
    teacher_id（老师工号）
    term（学期）
}
class Studentsxuanke{
    <b>select_id</b>（选课ID）
    <b>discipline_id</b>（课程编号）
    student_id（学生学号）
    term（学期）
}
class course{
    <b>course_id</b>（课程编号）
    course_name（课程名称）
}
class grades {
    <b>student_id</b> （学号）
    <b>test_id</b> （实验编号）
    result （分数）
    memo （评价）
    grades_grade  （每项评分）
    update_date （评改日期）
}
class terms{
    <b>term_id</b>（学期编号）
    term_name（学期名称）
}
class tests {
    <b>test_id</b> （实验编号）
    title (实验名称)
}

students "1" -- "n"  grades
tests "1" -- "n"  grades
teachers "1" -- "n"  Teachersxuanke
students "1" -- "n"  Studentsxuanke
course "1" -- "n"  Teachersxuanke
course "1" -- "n"  Studentsxuanke
terms "1" -- "n" course


@enduml